<svg xmlns="http://www.w3.org/2000/svg" width="400" height="254" fill="none"><path fill="#000" d="M359.7 231.2c-18.2 0-28.6-15.6-28.6-34.2s10.4-34 28.6-34c9.2 0 16.3 4.3 20.4 10.7v-34h11.3v90H380v-9.4c-4 6.5-11.2 10.9-20.4 10.9m20.6-36.4c0-15.3-9.3-22-18.6-22-12.3 0-19.2 10-19.2 24.2 0 14 7 24.3 19.2 24.3 9.3 0 18.6-6.8 18.6-21.9zM264.8 229.8v-65.6h11.3v8.9a23 23 0 0 1 19.6-10.2c14 0 21.8 9.7 21.8 23.6v43.3h-11.3v-40.3c0-9.2-3.9-16-13.7-16-8.1 0-16.4 6.2-16.4 17.1v39.2zM215.2 231c-12 0-21.6-7.1-21.6-19 0-13 10.2-18.4 24.9-21.4l15.9-3.2v-2.8c0-7.5-4.1-11.8-13-11.8q-12.2.2-15.1 11.2l-10.7-2.8c3.2-10.6 12.8-18.3 26.3-18.3 14.6 0 23.7 7.2 23.7 21.2v32q.2 6.3 7 4.7v9q-15 2-17.2-7.4c-4 5.1-11.3 8.5-20.2 8.5m19.2-23.5v-11.3l-12.8 2.7c-10 2-16.8 4.8-16.8 12.7 0 6.4 4.6 10.2 11.8 10.2 9.6 0 17.8-6 17.8-14.3M180 139.7v90h-11.4v-90zM400 247.5H70.7v-11H400zM138 229.8V215h14.3v14.8zM135.8 138.6v10c-1.8-.1-3-.3-4.9-.3-6.6 0-10.2 3-10.2 11.3v4.6h14.5v9.6h-14.5v56h-11.3v-56h-10v-9.6h10v-5.3c0-12.8 7-20.6 20.4-20.6 2.3 0 3.5.1 6 .3M76.6 152.7v-13h12.3v13zm11.8 11.5v65.6H77v-65.6zM68.3 162.8v11.4c-3-1.6-8.3-1.2-10.4 1.6-2.7 3.5-1 7.7-1.4 12-1.4 14.2-16.7 20.5-29.3 19-4-.5-9.7-3.6-11.9 1.8-1.9 4.8 2.3 6.9 6.4 7.2C36.3 216.9 68 209.4 65 234c-2.5 20.9-38 22.5-53 16.5s-16.3-21-2.4-28.3a12 12 0 0 1 3.1-21c.4-.5-2.2-2.6-2.7-3.3a21.5 21.5 0 0 1 7-32.1c8.4-4.4 21.6-4 29.7 1 1.8 1.3 3 2.8 4.8 4 3.2-6.7 9.7-8.8 16.7-8m-39 8.8c-19.4 2-15.9 30.6 6 26 6.4-1.4 10.3-6 10.3-12.6 0-9.3-7.5-14.3-16.4-13.4m-9.5 53.7c-11.3 1.4-11.4 14-1.1 17.4 8 2.6 28.5 2.3 34.2-4.7 2-2.4 2.3-6.4.9-9.1s-5.1-3.5-7.8-3.7c-6.4-.5-20-.7-26.2.1M159.9 86.9q4.4 9 10.8 15a42 42 0 0 0 30.4 12q8.2 0 16-3 7.6-2.8 14.1-9 6.6-6 10.8-15l7.2 3.7a67 67 0 0 1-12.7 17.8 46 46 0 0 1-35.4 14.4q-10.6 0-19.5-3.6-8.7-3.6-15.9-10.8a70 70 0 0 1-12.8-17.8zM296.5 94.9q-9.8 0-18.4-3.7a48 48 0 0 1-25.4-25.3 48 48 0 0 1-3.6-18.5A47 47 0 0 1 296.5 0q10 0 18.5 3.7A45 45 0 0 1 330 14q6.7 6.5 10.3 15a46 46 0 0 1 3.7 18.5q0 9.8-3.7 18.5a47 47 0 0 1-43.8 29m-42.4-47.5h42.4V5q-8.8 0-16.5 3.4a42 42 0 0 0-25.9 39M378.1 68.2q5.4 0 9.7 2.6 4.5 2.5 7 7a18 18 0 0 1 2.6 9.7q0 5.3-2.6 9.8a20 20 0 0 1-16.7 9.6q-5.3 0-9.8-2.6a21 21 0 0 1-7-7q-2.6-4.5-2.6-9.8t2.7-9.7a20 20 0 0 1 16.7-9.6m0 32.2q5.4 0 9-3.6 3.9-3.9 3.9-9.3a12 12 0 0 0-1.8-6.4 13 13 0 0 0-11-6.5q-3.6 0-6.5 1.8-3 1.8-4.8 4.7a12.9 12.9 0 0 0 11.2 19.3M105.4 94.9q9.9 0 18.5-3.7a48 48 0 0 0 25.4-25.3 48 48 0 0 0 3.6-18.5A47 47 0 0 0 105.4 0Q95.4 0 87 3.7A45 45 0 0 0 71.9 14a45 45 0 0 0-10.2 15A46 46 0 0 0 58 47.5q0 9.8 3.7 18.5a47 47 0 0 0 43.7 29m42.4-47.5h-42.4V5q8.9 0 16.6 3.4a42 42 0 0 1 25.8 39M23.8 68.2a18 18 0 0 0-9.6 2.6q-4.5 2.5-7 7a18 18 0 0 0-2.7 9.7q0 5.3 2.7 9.8a20 20 0 0 0 16.6 9.6q5.4 0 9.8-2.6 4.3-2.7 7-7 2.7-4.5 2.7-9.8a19.7 19.7 0 0 0-19.4-19.3m0 32.2q-5.2 0-9-3.6a13 13 0 0 1-3.8-9.3q0-3.4 1.8-6.4a13 13 0 0 1 11-6.5q3.6 0 6.5 1.8 3 1.8 4.7 4.7t1.8 6.4a13 13 0 0 1-13 13"/></svg>
